<svg version="1.2" xmlns="http://www.w3.org/2000/svg" viewBox="0 0 32 32" width="32" height="32"><style>.a{fill:#a1a1aa}.b{fill:#f7e950}</style><path class="a" d="m6.2 21.5h-0.6q-0.8 0-1.4-0.2-0.6-0.3-0.9-0.8-0.4-0.6-0.3-1.3l0.1-2.3q0.1-0.7-0.2-1-0.3-0.4-1.2-0.4h-1.5v-1.1h1.5q0.9 0 1.2-0.3 0.3-0.4 0.2-1.1l-0.1-2.3q-0.1-0.7 0.3-1.3 0.3-0.5 0.9-0.7 0.6-0.3 1.4-0.3h0.6v1.1h-0.6q-0.7 0-1 0.3-0.4 0.3-0.4 0.9l0.2 2.3q0 0.9-0.4 1.5-0.5 0.5-1.4 0.5v-0.1q0.9 0 1.3 0.6 0.5 0.5 0.5 1.4l-0.2 2.3q0 0.6 0.4 0.9 0.3 0.3 1 0.3h0.6zm19.6 0h-0.6v-1.1h0.6q0.7 0 1-0.3 0.4-0.3 0.3-0.9l-0.1-2.3q0-0.9 0.4-1.5 0.5-0.5 1.4-0.5v0.1q-0.9 0-1.4-0.6-0.4-0.5-0.4-1.4l0.1-2.3q0.1-0.6-0.3-0.9-0.3-0.3-1-0.3h-0.6v-1.1h0.6q0.8 0 1.4 0.2 0.6 0.3 0.9 0.8 0.4 0.5 0.3 1.3l-0.1 2.3q-0.1 0.7 0.2 1.1 0.3 0.3 1.2 0.3h1.5v1.1h-1.5q-0.9 0-1.2 0.3-0.3 0.4-0.2 1.1l0.1 2.3q0.1 0.7-0.3 1.3-0.3 0.5-0.9 0.8-0.6 0.2-1.4 0.2z"/><path class="b" d="m11.6 19.3v-5h-3.1v-2h5.2v7q0 0.7-0.3 1.2-0.2 0.6-0.6 1-0.4 0.4-0.9 0.6-0.6 0.2-1.2 0.2h-2.4v-1.9h2.2q0.5 0 0.8-0.3 0.3-0.3 0.3-0.8zm0.7-10h0.4q0.5 0 0.8 0.3 0.3 0.2 0.3 0.7 0 0.4-0.3 0.7-0.3 0.2-0.8 0.2h-0.4q-0.5 0-0.7-0.2-0.3-0.3-0.3-0.7 0-0.5 0.3-0.7 0.2-0.3 0.7-0.3zm8 10.8q-0.8 0-1.5-0.2-0.6-0.2-1.1-0.6-0.5-0.4-0.7-0.9-0.3-0.6-0.3-1.3v-1.9q0-0.7 0.3-1.3 0.2-0.5 0.7-0.9 0.5-0.4 1.1-0.6 0.7-0.2 1.5-0.2 0.7 0 1.3 0.2 0.6 0.2 1 0.5 0.5 0.4 0.8 0.9 0.3 0.5 0.4 1.2h-2.1q-0.1-0.5-0.5-0.8-0.4-0.2-0.9-0.2-0.7 0-1.1 0.3-0.4 0.3-0.4 0.9v1.9q0 0.6 0.4 0.9 0.4 0.3 1.1 0.3 0.5 0 0.9-0.2 0.4-0.3 0.5-0.8h2.1q-0.1 0.7-0.4 1.2-0.3 0.5-0.8 0.9-0.4 0.3-1 0.5-0.6 0.2-1.3 0.2z"/></svg>